<?xml version="1.0" encoding="UTF-8"?>
<svg id="Capa_2" data-name="Capa 2" xmlns="http://www.w3.org/2000/svg" viewBox="0 0 256 256">
  <defs>
    <style>
      .cls-1 {
        fill: #fff;
      }

      .cls-2 {
        fill: none;
      }
    </style>
  </defs>
  <g id="REFERENCIA">
    <g>
      <g>
        <polygon class="cls-1" points="61.41 14.4 1.69 0 32.82 31.21 61.41 14.4"/>
        <polygon class="cls-1" points="30.6 32.38 0 1.61 30.6 72.66 30.6 32.38"/>
        <polygon class="cls-1" points="87.58 140.29 107.88 101.21 56.89 140.29 98.84 189.94 123.95 176.02 87.58 140.29"/>
        <polygon class="cls-1" points="30.74 77.55 26.44 151.68 80.69 248.8 51.26 140.57 30.74 77.55"/>
        <polygon class="cls-1" points="56.89 144.05 88.12 256 88.12 183.61 56.77 143.59 56.89 144.05"/>
        <polygon class="cls-1" points="150.49 99.34 200.35 137.57 222.62 75.78 191.73 15.06 128 15.06 128 15.06 64.27 15.06 33.38 75.78 55.65 137.57 105.51 99.34 39.54 74.88 39.54 73.58 108.42 75.51 110.7 101.69 92.72 140.04 128 140.04 128 140.04 163.28 140.04 145.3 101.69 147.58 75.51 216.46 73.58 216.46 74.88 150.49 99.34"/>
        <polygon class="cls-1" points="194.59 14.4 254.31 0 223.18 31.21 194.59 14.4"/>
        <polygon class="cls-1" points="225.4 32.38 256 1.61 225.4 72.66 225.4 32.38"/>
        <polygon class="cls-1" points="168.42 140.29 148.12 101.21 199.11 140.29 157.16 189.94 132.05 176.02 168.42 140.29"/>
        <polygon class="cls-1" points="225.26 77.55 229.56 151.68 175.31 248.8 204.74 140.57 225.26 77.55"/>
        <polygon class="cls-1" points="199.11 144.05 167.88 256 167.88 183.61 199.23 143.59 199.11 144.05"/>
        <polygon class="cls-1" points="128 192.15 128 192.15 98.86 192.15 110.78 207.29 128 207.29 128 207.29 145.19 207.29 157.12 192.15 128 192.15"/>
      </g>
      <rect class="cls-2" y="0" width="256" height="256"/>
    </g>
  </g>
</svg>