<?xml version="1.0" encoding="UTF-8"?>
<svg id="Capa_2" data-name="Capa 2" xmlns="http://www.w3.org/2000/svg" viewBox="0 0 256 256">
  <defs>
    <style>
      .cls-1 {
        fill: #fff;
      }
    </style>
  </defs>
  <g id="REFERENCIA">
    <g>
      <path class="cls-1" d="m226,10c11.03,0,20,8.97,20,20v196c0,11.03-8.97,20-20,20H30c-11.03,0-20-8.97-20-20V30c0-11.03,8.97-20,20-20h196m0-10H30C13.43,0,0,13.43,0,30v196c0,16.57,13.43,30,30,30h196c16.57,0,30-13.43,30-30V30c0-16.57-13.43-30-30-30h0Z"/>
      <g>
        <polygon class="cls-1" points="86.38 57 49.05 48 68.51 67.5 86.38 57"/>
        <polygon class="cls-1" points="67.12 68.24 48 49.01 67.12 93.41 67.12 68.24"/>
        <polygon class="cls-1" points="102.74 135.68 115.42 111.25 83.56 135.68 109.78 166.71 125.47 158.01 102.74 135.68"/>
        <polygon class="cls-1" points="67.21 96.47 64.53 142.8 98.43 203.5 80.04 135.86 67.21 96.47"/>
        <polygon class="cls-1" points="83.56 138.03 103.08 208 103.08 162.76 83.48 137.74 83.56 138.03"/>
        <polygon class="cls-1" points="142.06 110.09 173.22 133.98 187.14 95.36 167.83 57.41 128 57.41 128 57.41 88.17 57.41 68.86 95.36 82.78 133.98 113.94 110.09 72.71 94.8 72.71 93.99 115.76 95.19 117.19 111.55 105.95 135.53 128 135.53 128 135.53 150.05 135.53 138.81 111.55 140.24 95.19 183.29 93.99 183.29 94.8 142.06 110.09"/>
        <polygon class="cls-1" points="169.62 57 206.95 48 187.49 67.5 169.62 57"/>
        <polygon class="cls-1" points="188.88 68.24 208 49.01 188.88 93.41 188.88 68.24"/>
        <polygon class="cls-1" points="153.26 135.68 140.58 111.25 172.44 135.68 146.22 166.71 130.53 158.01 153.26 135.68"/>
        <polygon class="cls-1" points="188.79 96.47 191.47 142.8 157.57 203.5 175.96 135.86 188.79 96.47"/>
        <polygon class="cls-1" points="172.44 138.03 152.92 208 152.92 162.76 172.52 137.74 172.44 138.03"/>
        <polygon class="cls-1" points="128 168.1 128 168.1 109.79 168.1 117.24 177.56 128 177.56 128 177.56 138.74 177.56 146.2 168.1 128 168.1"/>
      </g>
    </g>
  </g>
</svg>