<?xml version="1.0" encoding="UTF-8"?>
<svg id="Capa_2" data-name="Capa 2" xmlns="http://www.w3.org/2000/svg" viewBox="0 0 80 80">
  <defs>
    <style>
      .cls-1 {
        fill: #fff;
      }

      .cls-2 {
        opacity: .6;
      }

      .cls-3 {
        fill: none;
      }
    </style>
  </defs>
  <g id="Capa_1-2" data-name="Capa 1">
    <g>
      <g class="cls-2">
        <rect class="cls-3" width="80" height="80"/>
      </g>
      <g>
        <g>
          <g>
            <path class="cls-1" d="m16.86,58.51c0-8.48,4.58-15.88,11.39-19.91h-8.46c-3.49,0-6.31,2.83-6.31,6.31v25.75c0,3.49,2.83,6.31,6.31,6.31h6.31c-5.6-4.22-9.24-10.91-9.24-18.47Z"/>
            <path class="cls-1" d="m40,37.03c-11.87,0-21.49,9.62-21.49,21.49s9.62,21.49,21.49,21.49,21.49-9.62,21.49-21.49-9.62-21.49-21.49-21.49Zm0,39.89c-10.17,0-18.41-8.24-18.41-18.41s8.24-18.41,18.41-18.41,18.41,8.24,18.41,18.41-8.24,18.41-18.41,18.41Z"/>
            <path class="cls-1" d="m60.21,38.6h-8.46c6.81,4.03,11.39,11.42,11.39,19.91,0,7.55-3.64,14.24-9.24,18.47h6.31c3.49,0,6.31-2.83,6.31-6.31v-25.75c0-3.49-2.83-6.31-6.31-6.31Zm2.24,5.97c-1.04,0-1.89-.85-1.89-1.89s.85-1.89,1.89-1.89,1.89.85,1.89,1.89-.85,1.89-1.89,1.89Z"/>
          </g>
          <g>
            <path class="cls-1" d="m50.74,5.24V1.97c0-1.09-.65-1.97-1.45-1.97h-18.59c-.8,0-1.45.88-1.45,1.97v3.27h21.48Z"/>
            <rect class="cls-1" x="29.26" y="6.64" width="21.48" height="4.65"/>
            <path class="cls-1" d="m29.26,12.7v3.27c0,1.09.65,1.97,1.45,1.97h18.59c.8,0,1.45-.88,1.45-1.97v-3.27h-21.48Z"/>
          </g>
          <path class="cls-1" d="m37.45,34.72v-13.39h5.09v13.39c1.47.14,2.89.43,4.28.81.05-.18.08-.38.08-.57v-15.53h-13.82v15.53c0,.2.03.39.08.57,1.39-.38,2.81-.67,4.28-.81Z"/>
        </g>
        <g>
          <g>
            <path class="cls-1" d="m36.89,52.5c.48,0,.96.1,1.44.27.48.18.92.48,1.31.89.4.41.72.98.96,1.69.24.71.36,1.61.36,2.68s-.1,1.96-.29,2.77c-.2.81-.48,1.49-.85,2.04-.37.55-.81.97-1.34,1.26-.52.29-1.12.43-1.77.43s-1.24-.13-1.75-.39c-.51-.26-.93-.63-1.26-1.09-.33-.47-.53-1.01-.63-1.63h1.4c.13.54.38.98.75,1.33.37.35.87.52,1.49.52.9,0,1.62-.39,2.14-1.18.52-.79.79-1.9.79-3.35h-.09c-.21.32-.47.6-.76.83-.29.23-.62.41-.98.54-.36.13-.74.19-1.14.19-.67,0-1.29-.17-1.84-.5s-1-.79-1.34-1.38c-.33-.59-.5-1.25-.5-2.01s.16-1.37.48-1.97c.32-.6.78-1.07,1.36-1.43.58-.35,1.27-.53,2.07-.51Zm0,1.26c-.48,0-.91.12-1.29.36-.38.24-.69.56-.91.96s-.33.85-.33,1.34.11.93.32,1.33c.22.4.51.71.89.95.37.23.8.35,1.28.35.36,0,.7-.07,1.01-.21.31-.14.59-.34.82-.59s.42-.53.55-.85.2-.65.2-1c0-.46-.11-.89-.33-1.29-.22-.4-.52-.72-.9-.97-.38-.25-.82-.37-1.31-.37Z"/>
            <path class="cls-1" d="m45.65,64.53c-.86,0-1.59-.24-2.2-.71-.61-.47-1.07-1.16-1.39-2.05-.32-.9-.48-1.98-.48-3.26s.16-2.35.48-3.24c.32-.9.79-1.58,1.4-2.06.61-.47,1.34-.71,2.19-.71s1.58.24,2.19.71c.61.47,1.07,1.16,1.4,2.06.32.9.48,1.98.48,3.24s-.16,2.36-.48,3.26c-.32.9-.78,1.58-1.39,2.05-.61.47-1.34.71-2.2.71Zm0-1.26c.85,0,1.52-.41,1.99-1.23.47-.82.71-2,.71-3.52,0-1.01-.11-1.88-.32-2.59s-.52-1.26-.93-1.63c-.4-.37-.89-.56-1.45-.56-.85,0-1.51.42-1.98,1.25-.48.83-.72,2.01-.72,3.53,0,1.01.11,1.88.32,2.58s.52,1.25.92,1.62.89.55,1.46.55Z"/>
            <path class="cls-1" d="m50,56.16v-.62c0-.54.11-1.02.33-1.44.22-.42.53-.75.94-.99.41-.24.89-.36,1.45-.36.85,0,1.51.26,2,.79.48.52.73,1.19.73,2v.62c0,.54-.11,1.02-.33,1.43s-.53.74-.93.98c-.4.24-.88.35-1.44.35-.85,0-1.51-.26-2.01-.78-.49-.52-.74-1.18-.74-1.99Zm1.37-.62v.62c0,.47.11.86.34,1.16.23.31.57.46,1.03.46s.78-.15,1-.46c.22-.31.33-.7.33-1.16v-.62c0-.46-.11-.84-.33-1.16-.22-.31-.56-.47-1.02-.47s-.78.16-1.01.47-.34.7-.34,1.16Z"/>
          </g>
          <polygon class="cls-1" points="30.14 56.44 30.14 52.75 26.51 52.75 26.51 56.44 24.56 55.61 28.32 64.53 32.08 55.61 30.14 56.44"/>
        </g>
      </g>
    </g>
  </g>
</svg>