<?xml version="1.0" encoding="UTF-8"?>
<svg id="Capa_2" data-name="Capa 2" xmlns="http://www.w3.org/2000/svg" viewBox="0 0 80 80">
  <defs>
    <style>
      .cls-1 {
        fill: #fff;
      }

      .cls-2 {
        opacity: .6;
      }

      .cls-3 {
        fill: none;
      }

      .cls-4 {
        fill: #6d6e70;
      }
    </style>
  </defs>
  <g id="Capa_1-2" data-name="Capa 1">
    <g>
      <g class="cls-2">
        <rect class="cls-3" width="80" height="80"/>
      </g>
      <g>
        <g>
          <g>
            <path class="cls-1" d="m16.86,58.51c0-8.48,4.58-15.88,11.39-19.91h-8.46c-3.49,0-6.31,2.83-6.31,6.31v25.75c0,3.49,2.83,6.31,6.31,6.31h6.31c-5.6-4.22-9.24-10.91-9.24-18.47Z"/>
            <path class="cls-1" d="m40,37.03c-11.87,0-21.49,9.62-21.49,21.49s9.62,21.49,21.49,21.49,21.49-9.62,21.49-21.49-9.62-21.49-21.49-21.49Zm0,39.89c-10.17,0-18.41-8.24-18.41-18.41s8.24-18.41,18.41-18.41,18.41,8.24,18.41,18.41-8.24,18.41-18.41,18.41Z"/>
            <path class="cls-1" d="m60.21,38.6h-8.46c6.81,4.03,11.39,11.42,11.39,19.91,0,7.55-3.64,14.24-9.24,18.47h6.31c3.49,0,6.31-2.83,6.31-6.31v-25.75c0-3.49-2.83-6.31-6.31-6.31Zm2.24,5.97c-1.04,0-1.89-.85-1.89-1.89s.85-1.89,1.89-1.89,1.89.85,1.89,1.89-.85,1.89-1.89,1.89Z"/>
          </g>
          <g>
            <path class="cls-1" d="m50.74,5.24V1.97c0-1.09-.65-1.97-1.45-1.97h-18.59c-.8,0-1.45.88-1.45,1.97v3.27h21.48Z"/>
            <rect class="cls-1" x="29.26" y="6.64" width="21.48" height="4.65"/>
            <path class="cls-1" d="m29.26,12.7v3.27c0,1.09.65,1.97,1.45,1.97h18.59c.8,0,1.45-.88,1.45-1.97v-3.27h-21.48Z"/>
          </g>
          <path class="cls-1" d="m37.45,34.72v-13.39h5.09v13.39c1.47.14,2.89.43,4.28.81.05-.18.08-.38.08-.57v-15.53h-13.82v15.53c0,.2.03.39.08.57,1.39-.38,2.81-.67,4.28-.81Z"/>
        </g>
        <g id="Capa_2-2" data-name="Capa 2-2">
          <g>
            <g>
              <path class="cls-4" d="m46.18,49.8h-12.37c-.63,0-1.15.51-1.15,1.13v15.16c0,.62.52,1.13,1.15,1.13h12.37c.63,0,1.15-.51,1.15-1.13v-15.16c0-.62-.52-1.13-1.15-1.13Z"/>
              <g>
                <polygon class="cls-1" points="40.86 59.43 34.36 58.26 36.33 61.45 40.36 62.17 40.86 59.43"/>
                <path class="cls-1" d="m36.98,49.8l.22,3.2,3.86.69c.13-.29.34-.53.6-.72.32-.22.7-.33,1.09-.31l2.91-2.86h-8.67Z"/>
                <path class="cls-1" d="m42.83,53.55c-.06,0-.11-.02-.16-.02-.18,0-.35.06-.51.16-.2.13-.33.34-.37.57-.09.48.24.95.72,1.03.48.09.95-.23,1.04-.72.04-.23,0-.47-.15-.67s-.35-.33-.58-.37v.02Z"/>
                <polygon class="cls-1" points="35.51 67.23 39.44 67.23 40.21 63.03 36.41 62.34 35.51 67.23"/>
                <path class="cls-1" d="m43.68,52.97c.17.12.33.27.45.44.25.35.35.76.3,1.18l2.89.52v-4.18c0-.42-.23-.79-.58-.99l-3.07,3.03h0Z"/>
                <path class="cls-1" d="m46.91,55.92l-3.99,10.54-2.38-.43-.21,1.19h5.85c.63,0,1.15-.51,1.15-1.13v-10.09l-.42-.07Z"/>
                <path class="cls-1" d="m40.9,54.54l-3.63-.65.29,4.05,3.47.62.51-2.8c-.12-.1-.23-.21-.32-.35-.18-.26-.29-.57-.31-.88h0Z"/>
                <path class="cls-1" d="m36.65,57.79l-.56-7.99h-2.29c-.63,0-1.15.51-1.15,1.13v6.14l3.99.72Z"/>
                <path class="cls-1" d="m35.59,61.92l-2.38-3.87-.53-.1v8.14c0,.62.52,1.13,1.15,1.13h.81l.97-5.3h0Z"/>
                <path class="cls-1" d="m46.03,55.77l-1.91-.35c-.33.46-.87.75-1.45.75-.11,0-.21,0-.31-.02h0l-1.64,9.03,1.66.3,3.67-9.72h-.02Z"/>
              </g>
            </g>
            <path class="cls-1" d="m46.79,68.48h-13.55c-.95,0-1.69-.74-1.69-1.64v-16.65c0-.9.74-1.64,1.66-1.64h13.58c.91,0,1.66.74,1.66,1.64v16.6c0,.96-.74,1.7-1.66,1.7Zm-13.59-19.14c-.48,0-.86.39-.86.85v16.6c0,.53.39.91.86.91h13.56c.51,0,.9-.39.9-.85v-16.65c0-.47-.39-.85-.86-.85h-13.6Z"/>
          </g>
        </g>
      </g>
    </g>
  </g>
</svg>