<?xml version="1.0" encoding="UTF-8"?>
<svg id="Capa_2" data-name="Capa 2" xmlns="http://www.w3.org/2000/svg" viewBox="0 0 80 80">
  <defs>
    <style>
      .cls-1 {
        fill: #fff;
      }

      .cls-2 {
        opacity: .6;
      }

      .cls-3 {
        fill: gray;
      }

      .cls-4 {
        fill: none;
      }
    </style>
  </defs>
  <g id="Capa_1-2" data-name="Capa 1">
    <g>
      <g class="cls-2">
        <rect class="cls-4" width="80" height="80"/>
      </g>
      <g>
        <g>
          <g>
            <path class="cls-1" d="m16.86,58.51c0-8.48,4.58-15.88,11.39-19.91h-8.46c-3.49,0-6.31,2.83-6.31,6.31v25.75c0,3.49,2.83,6.31,6.31,6.31h6.31c-5.6-4.22-9.24-10.91-9.24-18.47Z"/>
            <path class="cls-1" d="m40,37.03c-11.87,0-21.49,9.62-21.49,21.49s9.62,21.49,21.49,21.49,21.49-9.62,21.49-21.49-9.62-21.49-21.49-21.49Zm0,39.89c-10.17,0-18.41-8.24-18.41-18.41s8.24-18.41,18.41-18.41,18.41,8.24,18.41,18.41-8.24,18.41-18.41,18.41Z"/>
            <path class="cls-1" d="m60.21,38.6h-8.46c6.81,4.03,11.39,11.42,11.39,19.91,0,7.55-3.64,14.24-9.24,18.47h6.31c3.49,0,6.31-2.83,6.31-6.31v-25.75c0-3.49-2.83-6.31-6.31-6.31Zm2.24,5.97c-1.04,0-1.89-.85-1.89-1.89s.85-1.89,1.89-1.89,1.89.85,1.89,1.89-.85,1.89-1.89,1.89Z"/>
          </g>
          <g>
            <path class="cls-1" d="m50.74,5.24V1.97c0-1.09-.65-1.97-1.45-1.97h-18.59c-.8,0-1.45.88-1.45,1.97v3.27h21.48Z"/>
            <rect class="cls-1" x="29.26" y="6.64" width="21.48" height="4.65"/>
            <path class="cls-1" d="m29.26,12.7v3.27c0,1.09.65,1.97,1.45,1.97h18.59c.8,0,1.45-.88,1.45-1.97v-3.27h-21.48Z"/>
          </g>
          <path class="cls-1" d="m37.45,34.72v-13.39h5.09v13.39c1.47.14,2.89.43,4.28.81.05-.18.08-.38.08-.57v-15.53h-13.82v15.53c0,.2.03.39.08.57,1.39-.38,2.81-.67,4.28-.81Z"/>
        </g>
        <g>
          <path class="cls-3" d="m40,68.48c-.61,0-1.21-.06-1.79-.18-.57-.12-1.13-.29-1.67-.52-.53-.22-1.04-.5-1.51-.82-.47-.32-.91-.69-1.32-1.09s-.77-.84-1.09-1.32c-.32-.48-.6-.98-.82-1.51-.23-.54-.4-1.1-.52-1.67-.12-.59-.18-1.19-.18-1.79s.06-1.21.18-1.79c.12-.57.29-1.14.52-1.67.22-.53.5-1.04.82-1.51.32-.47.68-.91,1.09-1.32s.84-.77,1.32-1.09c.49-.33,1.15-.2,1.48.29.33.49.2,1.15-.29,1.48-.36.24-.7.52-1,.83-.31.31-.58.64-.83,1-.24.36-.45.75-.62,1.15-.17.41-.31.84-.39,1.27-.09.44-.14.9-.14,1.36s.05.92.14,1.37c.09.43.22.86.39,1.27.17.4.38.79.62,1.15.24.36.52.7.83,1s.64.58,1,.83.75.45,1.15.62c.41.17.84.31,1.27.39.88.18,1.84.18,2.73,0,.43-.09.86-.22,1.27-.39.4-.17.79-.38,1.15-.62.36-.24.7-.52,1-.83.31-.31.59-.65.83-1,.24-.36.45-.75.62-1.15.17-.41.31-.84.39-1.27.09-.44.14-.9.14-1.36s-.05-.92-.14-1.36c-.09-.43-.22-.86-.39-1.27-.17-.4-.38-.79-.62-1.15-.24-.36-.52-.69-.83-1-.31-.3-.64-.58-1-.83-.49-.33-.62-.99-.29-1.48.33-.49.99-.62,1.48-.29.47.32.91.68,1.32,1.09.41.41.77.85,1.09,1.32.32.47.6.98.82,1.51.23.54.4,1.1.52,1.67.12.58.18,1.19.18,1.79s-.06,1.21-.18,1.79c-.12.57-.29,1.13-.52,1.67-.22.53-.5,1.04-.82,1.51-.32.47-.68.91-1.09,1.32-.4.4-.85.77-1.32,1.09-.47.32-.98.6-1.51.82-.54.23-1.1.4-1.67.52-.58.12-1.19.18-1.79.18Z"/>
          <path class="cls-3" d="m40,59c-.59,0-1.07-.48-1.07-1.07v-8.32c0-.59.48-1.07,1.07-1.07s1.07.48,1.07,1.07v8.32c0,.59-.48,1.07-1.07,1.07Z"/>
        </g>
      </g>
    </g>
  </g>
</svg>